<?xml version="1.0" encoding="UTF-8" standalone="no"?>
<!-- Created with Inkscape (http://www.inkscape.org/) -->

<svg
   xmlns:dc="http://purl.org/dc/elements/1.1/"
   xmlns:cc="http://creativecommons.org/ns#"
   xmlns:rdf="http://www.w3.org/1999/02/22-rdf-syntax-ns#"
   xmlns:svg="http://www.w3.org/2000/svg"
   xmlns="http://www.w3.org/2000/svg"
   xmlns:sodipodi="http://sodipodi.sourceforge.net/DTD/sodipodi-0.dtd"
   xmlns:inkscape="http://www.inkscape.org/namespaces/inkscape"
   width="64px"
   height="64px"
   viewBox="0 0 64 64"
   version="1.1"
   id="SVGRoot"
   inkscape:version="0.92.3 (2405546, 2018-03-11)"
   sodipodi:docname="logobetter.svg">
  <sodipodi:namedview
     id="base"
     pagecolor="#ffffff"
     bordercolor="#666666"
     borderopacity="1.0"
     inkscape:pageopacity="0.0"
     inkscape:pageshadow="2"
     inkscape:zoom="8"
     inkscape:cx="22.477814"
     inkscape:cy="33.865115"
     inkscape:document-units="px"
     inkscape:current-layer="layer1"
     showgrid="false"
     inkscape:window-width="1920"
     inkscape:window-height="1015"
     inkscape:window-x="0"
     inkscape:window-y="0"
     inkscape:window-maximized="1"
     inkscape:grid-bbox="true" />
  <defs
     id="defs815" />
  <metadata
     id="metadata818">
    <rdf:RDF>
      <cc:Work
         rdf:about="">
        <dc:format>image/svg+xml</dc:format>
        <dc:type
           rdf:resource="http://purl.org/dc/dcmitype/StillImage" />
        <dc:title></dc:title>
      </cc:Work>
    </rdf:RDF>
  </metadata>
  <g
     id="layer1"
     inkscape:groupmode="layer"
     inkscape:label="Livello 1">
    <g
       id="g1403"
       transform="matrix(1.0889763,0,0,1.0889763,-3.8632324,-1.4809436)">
      <path
         style="fill:#e9e9f1;stroke-width:0.31999999"
         d="m 23.393639,47.893084 c -0.08603,-0.139194 -0.574306,-0.253082 -1.085063,-0.253082 -1.800196,0 -2.670746,-1.573408 -1.537799,-2.779376 0.382679,-0.407343 0.546315,-0.740624 0.363636,-0.740624 -1.496206,0 -2.436389,-2.592035 -1.227494,-3.384134 0.760785,-0.498485 0.772457,-0.556531 0.296847,-1.476259 -0.796184,-1.53965 1.206199,-2.529139 7.95123,-3.929147 1.675881,-0.347848 0.8386,-0.733247 -8.09241,-3.72492 C 6.0997992,26.928346 5.3671781,26.670067 4.7011168,26.189997 4.0324552,25.708053 3.8676514,24.765919 4.3949969,24.440001 c 0.176,-0.108774 0.32,-0.524584 0.32,-0.924023 0,-3.217951 6.4064901,-8.76404 10.9068681,-9.44206 8.11016,-1.221864 12.938892,2.084028 19.525171,13.367505 1.236635,2.118578 1.236635,2.118578 1.242299,0.341408 0.01965,-6.170603 7.003843,-9.095459 11.158528,-4.672999 0.820816,0.873718 0.584441,0.90176 4.797785,-0.569182 2.506982,-0.875226 6.545405,-1.134276 7.737421,-0.496327 1.778118,0.951619 1.868124,4.155678 0.116739,4.155678 -0.399872,0 -0.806205,0.12809 -0.90296,0.284644 -0.09676,0.156554 -0.645255,0.360627 -1.218887,0.453496 -1.427702,0.231138 -6.960495,1.728303 -7.829932,2.118765 -0.388832,0.174624 -0.987645,0.863258 -1.330694,1.530297 -0.728365,1.416262 -2.047258,2.709145 -3.40234,3.33524 -0.63638,0.29403 -0.988723,0.712225 -1.045203,1.240556 -0.532851,4.984336 -4.797356,9.277003 -9.216143,9.277003 -0.583485,0 -1.157245,0.155917 -1.27502,0.346483 -0.117777,0.190566 -0.837319,0.613609 -1.598982,0.940096 -0.761664,0.326487 -1.658477,0.867245 -1.992917,1.201687 -1.015196,1.015196 -6.494724,1.77119 -6.993091,0.964816 z"
         id="path1417"
         inkscape:connector-curvature="0" />
      <path
         style="fill:#d4dbec;stroke-width:0.31999999"
         d="m 23.068382,47.838018 c -2.397415,-0.647683 -3.290965,-1.969155 -1.96126,-2.900518 0.712125,-0.498792 0.712125,-0.498792 -0.497331,-1.495728 -1.595789,-1.315383 -1.495219,-2.147651 0.368801,-3.052033 0.05698,-0.02764 -0.135277,-0.51219 -0.427232,-1.076768 -0.646062,-1.249347 4.029222,-3.460224 7.450305,-3.523146 0.912619,-0.01678 1.758104,-0.803486 1.27688,-1.188102 -0.221952,-0.177394 -4.219549,-1.577972 -8.883549,-3.112395 -4.664,-1.534424 -8.782763,-2.981646 -9.152806,-3.216049 C 10.872146,28.038876 9.5041458,27.533606 8.2021897,27.150456 3.6233138,25.802949 3.7733029,25.954727 4.8097837,23.717589 8.6573641,15.412982 16.938481,11.729747 23.877195,15.23688 c 1.614647,0.816113 5.443521,3.920439 5.797801,4.700666 0.088,0.193802 0.742156,1.142137 1.45368,2.107411 1.689344,2.291813 4.246895,6.400454 5.42495,8.715044 0.61344,1.205258 1.133975,1.840001 1.508938,1.840001 0.785171,0 0.717996,-0.491858 -0.238435,-1.745803 -4.295539,-5.631743 4.158563,-12.759527 9.161561,-7.724257 1.150697,1.158118 1.150697,1.158118 4.32,0.0057 3.543331,-1.288454 7.489439,-1.588474 8.883011,-0.675369 1.012409,0.663356 1.689964,2.065338 1.298256,2.686324 -0.304714,0.483072 -0.855431,0.682884 -5.571962,2.021628 -7.041299,1.998609 -6.437692,1.705849 -7.823635,3.794627 -0.896857,1.351666 -1.63992,2.074646 -2.56,2.490814 -1.122291,0.507629 -1.324243,0.758243 -1.503974,1.866366 -0.831795,5.128366 -4.640861,8.8 -9.129395,8.8 -0.584647,0 -1.062995,0.152097 -1.062995,0.337993 0,0.185897 -0.684,0.638836 -1.52,1.006531 -0.836,0.367694 -1.821617,0.990865 -2.19026,1.384823 -1.158479,1.238032 -4.434373,1.697018 -7.056354,0.988669 z m 14.766614,-5.35078 c 2.8259,-1.053224 4.611897,-3.387129 5.294931,-6.919306 0.375731,-1.943028 0.426624,-2.015438 2.067244,-2.941347 2.430074,-1.371449 3.77938,-3.370507 2.717824,-4.026584 -0.176,-0.108774 -0.32,-0.549272 -0.32,-0.978885 0,-0.887638 -0.375484,-1.005413 -0.96,-0.301115 -0.949244,1.143768 -2.879999,0.205972 -2.879999,-1.398857 0,-1.492959 2.070265,-2.322876 3.135999,-1.257143 0.226157,0.226156 0.384,0.249084 0.384,0.05578 0,-1.041588 -2.525888,-2.428392 -4.476607,-2.45782 -4.883645,-0.07367 -6.858784,5.618112 -3.278077,9.44647 0.924464,0.988401 0.674307,1.631692 -0.776071,1.995715 C 37.605745,33.989891 37.112778,33.461812 34.933517,29.62202 26.086904,14.034547 18.299056,10.675739 9.5458674,18.672625 c -4.5755725,4.180229 -4.8763602,6.354891 -1.0622326,7.679824 2.9686382,1.03123 2.9686382,1.03123 4.5089982,-0.928841 6.260047,-7.96576 16.435004,-5.047523 22.135464,6.348579 2.667104,5.331956 2.578771,5.706402 -1.055951,4.476098 -1.994208,-0.675012 -2.281144,-0.697849 -3.68,-0.292889 -0.834432,0.241563 -2.147285,0.603855 -2.917451,0.805092 -1.4003,0.365886 -1.4003,0.365886 -0.451359,1.3827 0.521917,0.559247 1.636866,1.880814 2.477664,2.936814 2.038668,2.560465 4.241687,2.932456 8.333996,1.407236 z"
         id="path1415"
         inkscape:connector-curvature="0" />
      <path
         style="fill:#b5adb4;stroke-width:0.31999999"
         d="M 23.000083,47.778572 C 20.603004,47.025628 19.916,45.750328 21.514996,45.021777 c 1.053972,-0.480222 1.013848,-0.641072 -0.34207,-1.371282 -2.031192,-1.093869 -2.053661,-2.411194 -0.05365,-3.145254 0.313278,-0.114982 0.312386,-0.233571 -0.0043,-0.569239 -0.904432,-0.958699 -0.464406,-1.453507 1.636895,-1.840688 3.522949,-0.649128 3.425873,-0.689805 5.930126,2.48487 2.049323,2.597955 2.366719,2.869334 3.461915,2.96 1.855798,0.153633 1.805188,1.056475 -0.105126,1.875331 -0.837971,0.359197 -1.718011,0.930666 -1.955644,1.269937 -0.933032,1.332089 -4.546782,1.889792 -7.083079,1.09312 z M 33.581946,35.471671 c -0.931178,-0.330862 -1.908541,-0.518876 -2.171919,-0.417809 -0.263377,0.101068 -0.726652,-0.04048 -1.029498,-0.314554 -0.302847,-0.274072 -4.505228,-1.806482 -9.338626,-3.405354 -10.34106,-3.42079 -9.622262,-2.945333 -7.855633,-5.196201 6.23077,-7.938646 15.414759,-5.512421 21.333431,5.635864 2.283858,4.301829 2.158031,4.798037 -0.937755,3.698054 z m 14.344307,-7.330632 c -0.182192,-0.34043 -0.331258,-0.91643 -0.331258,-1.28 0,-0.837109 -0.370595,-0.845911 -0.885737,-0.02104 -0.75081,1.202241 -2.634262,0.630255 -2.634262,-0.8 0,-1.382638 1.50766,-1.912353 2.608191,-0.916386 0.537847,0.486745 0.618484,0.479083 1.145197,-0.108815 0.627031,-0.699865 4.168045,-2.119006 6.639421,-2.660895 2.52574,-0.553809 5.367024,-0.119602 6.421843,0.98139 1.689219,1.763165 1.360732,1.946752 -7.917453,4.42499 -4.39839,1.174827 -4.612326,1.19097 -5.045942,0.380754 z"
         id="path1413"
         inkscape:connector-curvature="0" />
      <path
         style="fill:#b48b62;stroke-width:0.31999999"
         d="m 23.085784,47.66213 c -2.57596,-1.24775 -2.581829,-2.563526 -0.01161,-2.601793 2.243263,-0.0334 5.739489,-0.75635 5.893599,-1.218682 0.114276,-0.342827 -0.178216,-0.386251 -1.414356,-0.209974 -5.112832,0.729101 -9.88425,-1.05217 -6.598425,-2.463334 1.221284,-0.524505 1.206406,-0.494075 0.580024,-1.186219 -0.802162,-0.886379 -0.463849,-1.176105 1.892515,-1.620719 2.660738,-0.502045 2.579381,-0.544569 5.15434,2.694136 1.933696,2.432144 2.299975,2.744457 3.218677,2.744457 1.515119,0 1.622947,0.57722 0.217474,1.164176 -0.672667,0.28092 -1.72703,0.930909 -2.34303,1.444422 -0.616,0.513514 -1.305689,1.083645 -1.532642,1.266957 -0.827768,0.668599 -3.664085,0.661069 -5.05657,-0.01344 z M 48.298995,28.056001 c -0.686121,-0.68612 -0.473651,-2.744689 0.336,-3.25545 4.332643,-2.733198 13.487321,-2.919623 12.975939,-0.26424 -0.177961,0.92409 -12.6183,4.213329 -13.311939,3.51969 z M 44.73913,26.709082 c -0.523293,-0.630532 -0.135888,-1.789081 0.598246,-1.789081 0.870429,0 1.496573,0.892851 1.084765,1.546824 -0.452237,0.718173 -1.198845,0.825642 -1.683011,0.242257 z"
         id="path1411"
         inkscape:connector-curvature="0" />
      <path
         style="fill:#e08b23;stroke-width:0.31999999"
         d="m 24.074996,47.963394 c -0.905725,-0.233667 -0.91477,-0.251085 -0.16,-0.30808 0.689289,-0.05205 0.624997,-0.12449 -0.46458,-0.523466 -2.442969,-0.89456 -2.216846,-1.731846 0.467715,-1.731846 1.973,0 5.090873,-0.535318 5.537437,-0.950742 0.837614,-0.779205 -0.834976,-1.285107 -3.828085,-1.157867 -2.420253,0.102888 -3.234788,0.02074 -3.976118,-0.400998 -1.073359,-0.610628 -1.2337,-1.330393 -0.296369,-1.330393 0.732763,0 0.899943,-1.212058 0.256,-1.856 -0.638781,-0.638782 0.08505,-0.992222 2.470979,-1.206558 2.258585,-0.202896 4.183148,1.420144 6.196209,5.225441 0.296356,0.560204 0.577573,0.685578 1.249614,0.557111 0.683976,-0.130748 0.638334,-0.07723 -0.216027,0.253285 -0.595774,0.230482 -1.400271,0.816671 -1.787771,1.302641 -0.3875,0.485971 -1.268049,1.084378 -1.956775,1.329786 -1.190096,0.424064 -1.205919,0.446899 -0.318895,0.460249 0.513333,0.0077 0.873333,0.06759 0.8,0.133043 -0.321378,0.286826 -3.099821,0.429751 -3.973334,0.204394 z M 48.13449,26.920001 c -0.269869,-1.356153 0.721933,-1.989272 5.563225,-3.551304 2.145901,-0.69237 5.520243,-0.48097 6.345565,0.397546 0.863299,0.91894 0.826105,0.946645 -2.582355,1.923613 -8.638394,2.476024 -9.067254,2.53259 -9.326435,1.230145 z m -3.531661,-0.550739 c -0.14984,-0.390472 0.516563,-1.449261 0.912166,-1.449261 0.06286,0 0.334455,0.220167 0.603546,0.489261 0.645699,0.645699 0.314538,1.430739 -0.603546,1.430739 -0.402339,0 -0.812816,-0.211833 -0.912166,-0.470739 z"
         id="path1409"
         inkscape:connector-curvature="0" />
      <path
         style="fill:#a27244;stroke-width:0.31999999"
         d="m 24.074996,47.99981 c -1.547105,-0.365584 0.541028,-0.66097 2.56,-0.362138 0.88,0.13025 1.294,0.256058 0.92,0.279575 -0.374,0.02352 -1.094,0.102752 -1.6,0.176083 -0.506,0.07333 -1.352,0.03123 -1.88,-0.09352 z M 21.96406,45.621694 c 0.142754,-0.142069 1.036113,-0.212038 1.985244,-0.155486 1.725692,0.10282 1.725692,0.10282 -0.259552,0.258306 -1.091884,0.08552 -1.868445,0.03925 -1.725692,-0.10282 z m 7.280014,-1.85109 c -0.465878,-0.544106 -0.862873,-0.648922 -2.121024,-0.56 -0.851328,0.06017 -1.480191,2.32e-4 -1.397475,-0.133193 0.163938,-0.264437 -2.542072,-1.517409 -3.277108,-1.517409 -0.259853,0 -0.453471,-0.314249 -0.453471,-0.736 0,-0.4048 -0.1728,-0.9088 -0.384,-1.12 -0.638781,-0.638782 0.08505,-0.992222 2.470979,-1.206558 2.258042,-0.202847 4.1833,1.420287 6.194665,5.222558 0.508876,0.961976 -0.221574,0.997772 -1.032566,0.0506 z M 44.602829,26.369262 c -0.14984,-0.390472 0.516563,-1.449261 0.912166,-1.449261 0.06286,0 0.334455,0.220167 0.603546,0.489261 0.645699,0.645699 0.314538,1.430739 -0.603546,1.430739 -0.402339,0 -0.812816,-0.211833 -0.912166,-0.470739 z"
         id="path1407"
         inkscape:connector-curvature="0" />
      <path
         style="fill:#463939;stroke-width:0.31999999"
         d="m 29.354996,43.480002 c -0.264,-0.17061 -0.789662,-0.312405 -1.168138,-0.3151 -1.859228,-0.01324 -7.436829,-3.346599 -6.749627,-4.033801 0.167788,-0.167788 3.369958,-0.771099 4.092731,-0.771099 0.32359,0 1.40538,1.049523 2.516323,2.441269 2.111928,2.64574 2.506095,3.45254 1.308711,2.678731 z m 15.47654,-17.11786 c -0.110835,-0.288838 -0.04808,-0.678601 0.139459,-0.866141 0.487556,-0.487555 1.411332,-0.04195 1.283975,0.619358 -0.141856,0.736602 -1.167251,0.914377 -1.423434,0.246783 z"
         id="path1405"
         inkscape:connector-curvature="0" />
    </g>
  </g>
</svg>
